<svg xmlns="http://www.w3.org/2000/svg" xmlns:xlink="http://www.w3.org/1999/xlink" viewBox="0 0 120 120" width="120" height="120" style="width: 80px; height: 100%; transform: translate3d(0px, 0px, 0px);" preserveAspectRatio="xMidYMid meet"><defs><clipPath id="__lottie_element_403"><rect width="120" height="120" x="0" y="0"></rect></clipPath></defs><g clip-path="url(#__lottie_element_403)"><g style="display: block;" transform="matrix(-1,0,0,-1,557.5,121.5)" opacity="1"><g opacity="1" transform="matrix(1,0,0,1,526.4580078125,14.706999778747559)"><path stroke-linecap="butt" stroke-linejoin="miter" fill-opacity="0" stroke-miterlimit="4" stroke="#000" stroke-opacity="1" stroke-width="3" d=" M-10.03600025177002,7.420000076293945 C-6.690000057220459,5.818999767303467 -0.9610000252723694,0.609000027179718 -4.803999900817871,-7.420000076293945 C-0.9610000252723694,0.609000027179718 6.690999984741211,-0.5870000123977661 10.03600025177002,-2.187999963760376"></path></g></g><g style="display: block;" transform="matrix(-1,0,0,-1,557.5,121.5)" opacity="1"><g opacity="1" transform="matrix(1,0,0,1,501.52099609375,64.072998046875)"><path stroke-linecap="butt" stroke-linejoin="miter" fill-opacity="0" stroke-miterlimit="4" stroke="#000" stroke-opacity="1" stroke-width="3" d=" M-38.970001220703125,52.224998474121094 C-22.76099967956543,44.89400100708008 7.360000133514404,23.01300048828125 -1.8279999494552612,-5.861999988555908 C-13.312999725341797,-41.95399856567383 -54.65399932861328,-13.387999534606934 -30.402000427246094,7.879000186920166 C-6.151000022888184,29.145000457763672 54.65399932861328,-1.2730000019073486 21.78499984741211,-52.224998474121094"></path></g></g></g></svg>